<svg width="21" height="86" viewBox="0 0 21 86" fill="none" xmlns="http://www.w3.org/2000/svg">
<path d="M15.308 42.44C15.308 41.624 15.17 41.03 14.894 40.658C14.618 40.286 14.228 40.1 13.724 40.1C13.424 40.1 13.166 40.166 12.95 40.298C12.734 40.418 12.542 40.598 12.374 40.838C12.194 41.066 12.032 41.348 11.888 41.684C11.732 42.02 11.582 42.404 11.438 42.836C11.282 43.268 11.114 43.688 10.934 44.096C10.742 44.492 10.508 44.846 10.232 45.158C9.956 45.458 9.626 45.704 9.242 45.896C8.858 46.076 8.396 46.166 7.856 46.166C6.728 46.166 5.846 45.776 5.21 44.996C4.562 44.216 4.238 43.154 4.238 41.81C4.238 41.03 4.328 40.34 4.508 39.74C4.676 39.128 4.862 38.648 5.066 38.3L6.902 39.002C6.674 39.41 6.5 39.86 6.38 40.352C6.26 40.832 6.2 41.33 6.2 41.846C6.2 42.458 6.326 42.938 6.578 43.286C6.83 43.622 7.184 43.79 7.64 43.79C7.916 43.79 8.156 43.736 8.36 43.628C8.552 43.508 8.726 43.346 8.882 43.142C9.038 42.926 9.182 42.68 9.314 42.404C9.446 42.116 9.572 41.804 9.692 41.468C9.908 40.88 10.13 40.358 10.358 39.902C10.574 39.434 10.838 39.044 11.15 38.732C11.45 38.408 11.81 38.162 12.23 37.994C12.638 37.826 13.136 37.742 13.724 37.742C14.852 37.742 15.728 38.144 16.352 38.948C16.964 39.74 17.27 40.904 17.27 42.44C17.27 42.956 17.234 43.43 17.162 43.862C17.102 44.282 17.024 44.66 16.928 44.996C16.832 45.32 16.736 45.602 16.64 45.842C16.532 46.082 16.436 46.274 16.352 46.418L14.498 45.752C14.678 45.428 14.858 44.99 15.038 44.438C15.218 43.886 15.308 43.22 15.308 42.44ZM12.302 36.3733C11.606 36.3733 10.958 36.2653 10.358 36.0493C9.746 35.8333 9.218 35.5273 8.774 35.1313C8.33 34.7233 7.982 34.2313 7.73 33.6553C7.478 33.0793 7.352 32.4313 7.352 31.7113C7.352 30.8233 7.514 29.9833 7.838 29.1913L9.62 29.6593C9.512 29.9113 9.422 30.1993 9.35 30.5233C9.278 30.8353 9.242 31.1713 9.242 31.5313C9.242 32.3833 9.512 33.0313 10.052 33.4753C10.58 33.9193 11.33 34.1413 12.302 34.1413C13.238 34.1413 13.982 33.9313 14.534 33.5113C15.074 33.0913 15.344 32.3833 15.344 31.3873C15.344 31.0153 15.308 30.6493 15.236 30.2893C15.164 29.9293 15.074 29.6173 14.966 29.3533L16.766 29.0473C16.886 29.2873 16.994 29.6533 17.09 30.1453C17.186 30.6253 17.234 31.1233 17.234 31.6393C17.234 32.4433 17.114 33.1453 16.874 33.7453C16.622 34.3333 16.28 34.8253 15.848 35.2213C15.404 35.6053 14.882 35.8933 14.282 36.0853C13.67 36.2773 13.01 36.3733 12.302 36.3733ZM9.548 21.9971C9.488 22.1771 9.428 22.4291 9.368 22.7531C9.296 23.0651 9.26 23.4311 9.26 23.8511C9.26 24.0911 9.284 24.3491 9.332 24.6251C9.38 24.8891 9.422 25.0751 9.458 25.1831L17 25.1831L17 27.3611L8.036 27.3611C7.88 26.9411 7.736 26.4191 7.604 25.7951C7.46 25.1591 7.388 24.4571 7.388 23.6891C7.388 23.5451 7.4 23.3771 7.424 23.1851C7.436 22.9931 7.46 22.8011 7.496 22.6091C7.52 22.4171 7.556 22.2311 7.604 22.0511C7.64 21.8711 7.676 21.7271 7.712 21.6191L9.548 21.9971ZM12.284 11.5873C13.028 11.5873 13.706 11.6953 14.318 11.9113C14.93 12.1273 15.452 12.4333 15.884 12.8293C16.316 13.2253 16.652 13.7053 16.892 14.2693C17.132 14.8213 17.252 15.4333 17.252 16.1053C17.252 16.7773 17.132 17.3893 16.892 17.9413C16.652 18.4933 16.316 18.9673 15.884 19.3633C15.452 19.7593 14.93 20.0713 14.318 20.2993C13.706 20.5153 13.028 20.6233 12.284 20.6233C11.54 20.6233 10.868 20.5153 10.268 20.2993C9.656 20.0713 9.134 19.7593 8.702 19.3633C8.27 18.9553 7.94 18.4753 7.712 17.9233C7.472 17.3713 7.352 16.7653 7.352 16.1053C7.352 15.4453 7.472 14.8393 7.712 14.2873C7.94 13.7233 8.27 13.2433 8.702 12.8473C9.134 12.4513 9.656 12.1453 10.268 11.9293C10.868 11.7013 11.54 11.5873 12.284 11.5873ZM12.284 13.8193C11.348 13.8193 10.61 14.0233 10.07 14.4313C9.518 14.8273 9.242 15.3853 9.242 16.1053C9.242 16.8253 9.518 17.3893 10.07 17.7973C10.61 18.1933 11.348 18.3913 12.284 18.3913C13.232 18.3913 13.982 18.1933 14.534 17.7973C15.086 17.3893 15.362 16.8253 15.362 16.1053C15.362 15.3853 15.086 14.8273 14.534 14.4313C13.982 14.0233 13.232 13.8193 12.284 13.8193ZM17.18 6.06749C17.168 6.71549 17.096 7.25549 16.964 7.68749C16.832 8.10749 16.646 8.44349 16.406 8.69549C16.154 8.94749 15.848 9.12749 15.488 9.23549C15.116 9.33149 14.696 9.37949 14.228 9.37949L3.392 9.37949L3.032 7.20149L13.814 7.20149C14.078 7.20149 14.3 7.18349 14.48 7.14749C14.66 7.09949 14.816 7.02149 14.948 6.91349C15.068 6.80549 15.164 6.66149 15.236 6.48149C15.296 6.28949 15.344 6.04949 15.38 5.76149L17.18 6.06749ZM17.18 0.723741C17.168 1.37174 17.096 1.91174 16.964 2.34374C16.832 2.76374 16.646 3.09974 16.406 3.35174C16.154 3.60374 15.848 3.78374 15.488 3.89174C15.116 3.98774 14.696 4.03574 14.228 4.03574L3.392 4.03574L3.032 1.85774L13.814 1.85774C14.078 1.85774 14.3 1.83974 14.48 1.80374C14.66 1.75574 14.816 1.67774 14.948 1.56974C15.068 1.46174 15.164 1.31774 15.236 1.13774C15.296 0.945741 15.344 0.705741 15.38 0.417741L17.18 0.723741Z" fill="black"/>
<path d="M10.2929 85.7071C10.6834 86.0976 11.3166 86.0976 11.7071 85.7071L18.0711 79.3431C18.4616 78.9526 18.4616 78.3195 18.0711 77.9289C17.6805 77.5384 17.0474 77.5384 16.6569 77.9289L11 83.5858L5.34314 77.9289C4.95262 77.5384 4.31946 77.5384 3.92893 77.9289C3.53841 78.3195 3.53841 78.9526 3.92893 79.3431L10.2929 85.7071ZM10 55L10 85L12 85L12 55L10 55Z" fill="black"/>
</svg>
